<svg width="56.000000" height="56.000000" viewBox="0 0 56 56" fill="none" xmlns="http://www.w3.org/2000/svg" xmlns:xlink="http://www.w3.org/1999/xlink">
	<desc>
			Created with Pixso.
	</desc>
	<defs>
		<clipPath id="clip3_483">
			<rect id="24 / Facebook" rx="-0.500000" width="23.000000" height="23.000000" transform="translate(16.500000 16.500000)" fill="white" fill-opacity="0"/>
		</clipPath>
	</defs>
	<circle id="Ellipse 2" cx="28.000000" cy="28.000000" r="28.000000" fill="#FFFFFF" fill-opacity="0.200000"/>
	<rect id="24 / Facebook" rx="-0.500000" width="23.000000" height="23.000000" transform="translate(16.500000 16.500000)" fill="#FFFFFF" fill-opacity="0"/>
	<g clip-path="url(#clip3_483)">
		<path id="Vector" d="M39.99 27.99C39.99 21.37 34.62 16 28 16C21.37 16 16 21.37 16 27.99C16 33.98 20.38 38.95 26.12 39.85L26.12 31.46L23.07 31.46L23.07 27.99L26.12 27.99L26.12 25.35C26.12 22.34 27.91 20.68 30.65 20.68C31.96 20.68 33.34 20.92 33.34 20.92L33.34 23.87L31.83 23.87C30.33 23.87 29.87 24.79 29.87 25.74L29.87 27.99L33.2 27.99L32.66 31.46L29.87 31.46L29.87 39.85C35.6 38.95 39.99 33.98 39.99 27.99Z" fill="#FFFFFF" fill-opacity="1.000000" fill-rule="nonzero"/>
	</g>
</svg>
