<svg width="64.000000" height="64.000000" viewBox="0 0 64 64" fill="none" xmlns="http://www.w3.org/2000/svg" xmlns:xlink="http://www.w3.org/1999/xlink">
	<desc>
			Created with Pixso.
	</desc>
	<defs>
		<clipPath id="clip3_124">
			<rect id="24 / Quote" rx="-0.500000" width="63.000000" height="63.000000" transform="translate(0.500000 0.500000)" fill="white" fill-opacity="0"/>
		</clipPath>
	</defs>
	<rect id="24 / Quote" rx="-0.500000" width="63.000000" height="63.000000" transform="translate(0.500000 0.500000)" fill="#FFFFFF" fill-opacity="0"/>
	<g clip-path="url(#clip3_124)">
		<path id="“" d="M29.29 43.63C26.84 40.37 24.06 36.31 24.06 31.59C24.06 26.54 26.51 21.34 31.26 16.94L20.95 8C11.29 13.85 0 23.13 0 37.61C0 44.12 4.74 50.79 9.33 56L29.29 43.63ZM62.03 43.63C59.58 40.37 56.79 36.31 56.79 31.59C56.79 26.54 59.25 21.34 64 16.94L53.68 8C44.03 13.85 32.73 23.13 32.73 37.61C32.73 44.12 37.48 50.79 42.06 56L62.03 43.63Z" fill="#118AB2" fill-opacity="1.000000" fill-rule="nonzero"/>
	</g>
</svg>
