<svg width="80.000000" height="80.000000" viewBox="0 0 80 80" fill="none" xmlns="http://www.w3.org/2000/svg" xmlns:xlink="http://www.w3.org/1999/xlink">
	<desc>
			Created with Pixso.
	</desc>
	<defs>
		<filter id="filter_3_813_dd" x="-40.000000" y="-32.000000" width="160.000000" height="160.000000" filterUnits="userSpaceOnUse" color-interpolation-filters="sRGB">
			<feFlood flood-opacity="0" result="BackgroundImageFix"/>
			<feColorMatrix in="SourceAlpha" type="matrix" values="0 0 0 0 0 0 0 0 0 0 0 0 0 0 0 0 0 0 127 0" result="hardAlpha"/>
			<feOffset dx="0" dy="8"/>
			<feGaussianBlur stdDeviation="13.3333"/>
			<feComposite in2="hardAlpha" operator="out" k2="-1" k3="1"/>
			<feColorMatrix type="matrix" values="0 0 0 0 0 0 0 0 0 0 0 0 0 0 0 0 0 0 0.1 0"/>
			<feBlend mode="normal" in2="BackgroundImageFix" result="effect_dropShadow_1"/>
			<feBlend mode="normal" in="SourceGraphic" in2="effect_dropShadow_1" result="shape"/>
		</filter>
		<clipPath id="clip3_811">
			<rect id="services_icon4" width="80.000000" height="80.000000" fill="white" fill-opacity="0"/>
		</clipPath>
	</defs>
	<g clip-path="url(#clip3_811)">
		<rect id="80 / 01" x="20.250000" y="16.250000" rx="-0.500000" width="39.500000" height="39.500000" fill="#FFFFFF" fill-opacity="0"/>
		<g filter="url(#filter_3_813_dd)">
			<rect id="Rectangle 48" rx="40.000000" width="80.000000" height="80.000000" fill="#FFFFFF" fill-opacity="1.000000"/>
		</g>
		<rect id="24 / Discount" x="28.250000" y="24.250000" rx="-0.500000" width="23.500000" height="23.500000" fill="#FFFFFF" fill-opacity="0"/>
		<g opacity="0.000000">
			<rect id="Rectangle 18208" x="28.000000" y="24.000000" width="24.000000" height="24.000000" fill="#C4C4C4" fill-opacity="1.000000"/>
		</g>
		<path id="%" d="M28.49 52.9L31.94 55L51.53 27.48L48.24 25L28.49 52.9ZM24 33.13C24 37.31 27.17 40.24 31.36 40.24C35.56 40.24 38.71 37.31 38.71 33.13C38.71 28.92 35.56 26 31.36 26C27.17 26 24 28.92 24 33.13ZM28.33 33.13C28.33 31.16 29.75 29.88 31.36 29.88C32.98 29.88 34.36 31.16 34.36 33.13C34.36 35.13 33.01 36.42 31.36 36.42C29.8 36.42 28.33 35.13 28.33 33.13ZM41.27 47.21C41.27 51.38 44.47 54.35 48.66 54.35C52.81 54.35 56 51.38 56 47.21C56 43 52.81 40.12 48.66 40.12C44.47 40.12 41.27 43 41.27 47.21ZM45.61 47.21C45.61 45.21 47.03 43.92 48.66 43.92C50.23 43.92 51.65 45.21 51.65 47.21C51.65 49.17 50.26 50.46 48.66 50.46C47.08 50.46 45.61 49.17 45.61 47.21Z" fill="#118AB2" fill-opacity="1.000000" fill-rule="nonzero"/>
	</g>
</svg>
